<svg width="24" height="24" viewBox="0 0 24 24" fill="none" xmlns="http://www.w3.org/2000/svg">
<g clip-path="url(#clip0_8223_2634)">
<path d="M19.3021 12.73L21.0831 10.249C21.4341 9.75101 21.5041 9.12001 21.2691 8.56001C21.0361 8.00401 20.5401 7.61201 19.9451 7.51501L16.9541 7.03401L16.7731 5.94301L16.7931 5.92301L16.7481 5.79601L16.4541 4.02601C16.3561 3.42701 15.9621 2.93201 15.4001 2.69901C15.1171 2.58101 14.8171 2.54201 14.5251 2.57601C14.1831 2.58501 13.8471 2.68301 13.5571 2.89101L11.1801 4.61101L8.77905 2.88601C8.48905 2.68101 8.15305 2.58501 7.81305 2.57601C7.51905 2.54201 7.21805 2.58101 6.93505 2.70001C6.37805 2.93301 5.98705 3.42901 5.88905 4.02401L5.40805 7.01501L2.40005 7.51401C1.80105 7.61301 1.30605 8.00701 1.07305 8.56801C0.839052 9.13001 0.912052 9.76101 1.26605 10.255L3.04205 12.709L1.26105 15.19C0.910052 15.688 0.840052 16.32 1.07405 16.879C1.30805 17.436 1.80305 17.826 2.39805 17.924L5.38905 18.405L5.88905 21.413C5.98605 22.01 6.37805 22.505 6.93405 22.739C7.21705 22.858 7.51905 22.897 7.81205 22.863C8.15305 22.854 8.49005 22.756 8.78405 22.549L11.1561 20.846L11.1751 20.839L13.5571 22.549C13.8601 22.765 14.2121 22.876 14.5701 22.876C14.7971 22.876 15.0241 22.832 15.2431 22.741C15.8041 22.508 16.1991 22.012 16.2971 21.415L16.7781 18.424L17.8691 18.243L18.0451 18.419L19.0081 18.08L19.9421 17.924C20.541 17.826 21.0371 17.432 21.2701 16.87C21.5041 16.307 21.4311 15.678 21.0771 15.184L19.3021 12.73Z" fill="#DCE6EA"/>
<path d="M15.189 24.001C14.835 24.001 14.486 23.891 14.187 23.677L11.384 21.665C11.311 21.614 11.19 21.617 11.103 21.674L8.31296 23.677C7.81296 24.028 7.18796 24.097 6.63596 23.865C6.08596 23.635 5.69896 23.144 5.60196 22.554L5.03596 19.147C5.01996 19.053 4.94596 18.979 4.85096 18.963L1.44296 18.397C0.853958 18.3 0.363958 17.914 0.132958 17.363C-0.0990419 16.809 -0.0300419 16.185 0.317958 15.692L2.33296 12.883C2.38296 12.81 2.38296 12.689 2.32396 12.602L0.323958 9.81297C-0.0270419 9.32497 -0.0970419 8.70097 0.132958 8.14497C0.362958 7.58897 0.853958 7.19997 1.44596 7.10297L4.85296 6.53697C4.94696 6.52097 5.02096 6.44697 5.03696 6.35297L5.60296 2.94497C5.69996 2.35497 6.08596 1.86497 6.63696 1.63497C7.18996 1.40297 7.81496 1.47197 8.30796 1.81997L11.116 3.83597C11.196 3.89397 11.305 3.89397 11.385 3.83497L14.186 1.82397C14.675 1.47497 15.298 1.40197 15.854 1.63397C16.41 1.86397 16.799 2.35497 16.897 2.94597L17.087 4.09097C17.155 4.49897 16.879 4.88597 16.47 4.95397C16.063 5.01797 15.675 4.74597 15.607 4.33697L15.417 3.19097C15.4 3.08297 15.324 3.03597 15.28 3.01897C15.236 3.00197 15.15 2.97897 15.061 3.04197L12.259 5.05397C11.655 5.48597 10.846 5.48497 10.243 5.05497L7.43796 3.04197C7.34896 2.97897 7.25996 2.99797 7.21696 3.01897C7.16496 3.03997 7.09996 3.08697 7.08296 3.18897L6.51596 6.59897C6.39496 7.32597 5.82596 7.89597 5.09896 8.01697L1.68996 8.58297C1.58296 8.60097 1.53696 8.67597 1.51896 8.71997C1.49996 8.76397 1.47896 8.85097 1.54196 8.93897L3.51396 11.682C3.97096 12.349 3.97096 13.15 3.56296 13.744L1.54196 16.56C1.47896 16.65 1.49996 16.738 1.51796 16.782C1.53996 16.834 1.58696 16.899 1.68896 16.916L5.09896 17.482C5.82596 17.603 6.39496 18.173 6.51596 18.9L7.08196 22.308C7.09896 22.412 7.16496 22.458 7.21596 22.48C7.25896 22.498 7.34696 22.519 7.44296 22.453L10.24 20.445C10.849 20.028 11.649 20.028 12.244 20.436L15.06 22.457C15.148 22.52 15.234 22.498 15.279 22.48C15.322 22.462 15.399 22.416 15.416 22.309L15.983 18.9C16.104 18.173 16.673 17.603 17.4 17.482L20.809 16.916C20.912 16.899 20.959 16.834 20.981 16.782C20.999 16.738 21.021 16.65 20.954 16.554L18.946 13.757C18.705 13.42 18.781 12.951 19.118 12.71C19.455 12.471 19.924 12.545 20.165 12.882L22.177 15.685C22.528 16.184 22.597 16.808 22.365 17.362C22.134 17.913 21.644 18.3 21.054 18.396L17.647 18.962C17.553 18.978 17.479 19.052 17.463 19.146L16.897 22.554C16.8 23.145 16.41 23.635 15.855 23.866C15.639 23.957 15.413 24.001 15.189 24.001Z" fill="#2DB155"/>
<path d="M12.25 15.5C12.058 15.5 11.866 15.427 11.72 15.28L7.21999 10.78C6.92699 10.487 6.92699 10.012 7.21999 9.71899C7.51299 9.42599 7.98799 9.42599 8.28099 9.71899L12.251 13.689L22.72 3.21999C23.013 2.92699 23.488 2.92699 23.781 3.21999C24.074 3.51299 24.074 3.98799 23.781 4.28099L12.781 15.281C12.634 15.427 12.442 15.5 12.25 15.5Z" fill="#2DB155"/>
</g>
<defs>
<clipPath id="clip0_8223_2634">
<rect width="24" height="24" fill="white"/>
</clipPath>
</defs>
</svg>
