<svg width="42" height="42" viewBox="0 0 42 42" fill="none" xmlns="http://www.w3.org/2000/svg">
<path d="M42 21C42 32.5978 32.5978 42 21 42C9.40217 42 0 32.5978 0 21C0 9.40217 9.40217 0 21 0C32.5978 0 42 9.40217 42 21Z" fill="#FFCC4D"/>
<path d="M20.9998 24.5C16.773 24.5 13.9683 24.0077 10.4998 23.3334C9.70767 23.1805 8.1665 23.3334 8.1665 25.6667C8.1665 30.3334 13.5273 36.1667 20.9998 36.1667C28.4712 36.1667 33.8332 30.3334 33.8332 25.6667C33.8332 23.3334 32.292 23.1794 31.4998 23.3334C28.0313 24.0077 25.2267 24.5 20.9998 24.5Z" fill="#664500"/>
<path d="M10.5 25.6667C10.5 25.6667 14 26.8333 21 26.8333C28 26.8333 31.5 25.6667 31.5 25.6667C31.5 25.6667 29.1667 30.3333 21 30.3333C12.8333 30.3333 10.5 25.6667 10.5 25.6667Z" fill="white"/>
<path d="M18.2959 5.1485L12.9969 6.083L10.2669 1.12117C9.96589 0.574004 9.34756 0.28117 8.73623 0.388504C8.12139 0.497004 7.64306 0.98467 7.54739 1.60067L6.67823 7.19717L1.37922 8.13167C0.755058 8.24134 0.273225 8.74417 0.188058 9.373C0.102891 10.0018 0.434225 10.6132 1.00822 10.8862L5.75656 13.1402L4.88389 18.7542C4.78706 19.3795 5.10439 19.9955 5.66906 20.2813C5.87789 20.3863 6.10189 20.4365 6.32473 20.4365C6.70622 20.4365 7.08306 20.2872 7.36422 20.0025L11.4616 15.848L16.7326 18.3505C17.3042 18.6212 17.9856 18.494 18.4196 18.0332C18.8536 17.5723 18.9399 16.8852 18.6354 16.331L15.8961 11.3517L19.5886 7.609C20.0342 7.1575 20.1357 6.46917 19.8417 5.90684C19.5454 5.3445 18.9166 5.04 18.2959 5.1485ZM23.7046 5.1485L29.0036 6.083L31.7336 1.12117C32.0346 0.574004 32.6529 0.28117 33.2642 0.388504C33.8779 0.497004 34.3562 0.98467 34.4519 1.60067L35.3211 7.19717L40.6201 8.13167C41.2454 8.24134 41.7272 8.743 41.8112 9.37184C41.8952 10.0007 41.5651 10.612 40.9911 10.885L36.2427 13.139L37.1154 18.753C37.2122 19.3783 36.8949 19.9943 36.3302 20.2802C36.1214 20.3852 35.8974 20.4353 35.6746 20.4353C35.2931 20.4353 34.9162 20.286 34.6351 20.0013L30.5377 15.8468L25.2667 18.3493C24.6951 18.62 24.0137 18.4928 23.5797 18.032C23.1457 17.5712 23.0594 16.884 23.3639 16.3298L26.1032 11.3517L22.4107 7.609C21.9651 7.1575 21.8636 6.46917 22.1576 5.90684C22.4551 5.3445 23.0839 5.04 23.7046 5.1485Z" fill="#E95F28"/>
</svg>
