<svg width="42" height="42" viewBox="0 0 42 42" fill="none" xmlns="http://www.w3.org/2000/svg">
<path d="M42 21C42 32.5978 32.5978 42 21 42C9.40333 42 0 32.5978 0 21C0 9.40333 9.40333 0 21 0C32.5978 0 42 9.40333 42 21Z" fill="#FFCC4D"/>
<path d="M8.1665 24.8068C8.1665 29.4315 13.5285 35.3068 20.9998 35.3068C28.4712 35.3068 33.8332 29.4735 33.8332 24.8068C33.8332 24.8068 21.778 28.0222 8.1665 24.8068Z" fill="#664500"/>
<path d="M14 26.8368V34.958C14 38.458 16.3333 41.958 21 41.958C25.6667 41.958 28 38.458 28 34.958V26.8847C20.6605 28.392 14 26.8368 14 26.8368Z" fill="#5D9040"/>
<path d="M14.3314 14.385C13.4494 14.0443 12.6152 13.7223 12.6152 13.2556C12.6152 12.4868 13.6465 12.4471 13.853 12.4471C14.5822 12.4471 14.945 12.7201 15.2647 12.9616C15.5097 13.1471 15.764 13.3385 16.1175 13.3385C16.7755 13.3385 17.0754 12.8753 17.0754 12.4448C17.0754 11.5861 16.023 10.9795 14.9077 10.7251V10.2666C14.9077 9.66231 14.4165 9.17114 13.8122 9.17114C13.2079 9.17114 12.7167 9.66231 12.7167 10.2666V10.7636C11.382 11.1521 10.5642 12.1333 10.5642 13.3711C10.5642 14.9006 12.0727 15.5283 13.4039 16.0813C14.357 16.478 15.2577 16.8525 15.2577 17.437C15.2577 17.864 14.721 18.326 13.8542 18.326C12.9792 18.326 12.4775 17.976 12.0342 17.668C11.7285 17.4545 11.4392 17.2526 11.0939 17.2526C10.5922 17.2526 10.2002 17.675 10.2002 18.214C10.2002 19.0061 11.2864 19.796 12.7167 20.0736V20.622C12.7167 21.2263 13.2079 21.7163 13.8122 21.7163C14.4165 21.7163 14.9077 21.2251 14.9077 20.622L14.9019 20.041C16.4139 19.6735 17.3075 18.6153 17.3075 17.1721C17.3087 15.5341 15.6579 14.8971 14.3314 14.385ZM31.143 17.192C31.143 15.554 29.4922 14.917 28.1657 14.4048C27.2837 14.0641 26.4507 13.7421 26.4507 13.2755C26.4507 12.5066 27.482 12.467 27.6885 12.467C28.4177 12.467 28.7794 12.74 29.1002 12.9815C29.3464 13.167 29.5995 13.3583 29.9519 13.3583C30.611 13.3583 30.9109 12.8951 30.9109 12.4646C30.9109 11.6048 29.8585 10.9993 28.7432 10.745V10.2876C28.7432 9.68331 28.2509 9.19214 27.6477 9.19214C27.0434 9.19214 26.551 9.68331 26.551 10.2876V10.7846C25.2175 11.1731 24.3985 12.1543 24.3985 13.3921C24.3985 14.9216 25.907 15.5493 27.2382 16.1023C28.1914 16.499 29.092 16.8735 29.092 17.458C29.092 17.885 28.5565 18.347 27.6897 18.347C26.8147 18.347 26.313 17.997 25.8709 17.689C25.564 17.4755 25.2747 17.2736 24.9305 17.2736C24.4277 17.2736 24.0357 17.696 24.0357 18.235C24.0357 19.0271 25.1219 19.817 26.551 20.0946V20.643C26.551 21.2461 27.0445 21.7373 27.6489 21.7373C28.2532 21.7373 28.7432 21.2461 28.7432 20.643L28.7397 20.062C30.2505 19.6921 31.143 18.6351 31.143 17.192Z" fill="#664500"/>
<path d="M24.4647 36.2472C24.4647 34.6512 22.8558 34.0293 21.5632 33.53C20.7033 33.1987 19.8902 32.8837 19.8902 32.4298C19.8902 31.6797 20.8947 31.6423 21.0965 31.6423C21.807 31.6423 22.1605 31.9095 22.4732 32.144C22.7123 32.3248 22.9608 32.5115 23.305 32.5115C23.9467 32.5115 24.2395 32.0588 24.2395 31.64C24.2395 30.8035 23.214 30.212 22.1255 29.9635V29.5167C22.1255 28.9275 21.646 28.448 21.0568 28.448C20.4677 28.448 19.9882 28.9275 19.9882 29.5167V30.0008C18.6873 30.3788 17.8893 31.3367 17.8893 32.543C17.8893 34.034 19.3605 34.6465 20.6578 35.1855C21.5877 35.5717 22.465 35.9368 22.465 36.5062C22.465 36.9227 21.9423 37.373 21.0965 37.373C20.2437 37.373 19.7548 37.0323 19.3232 36.7302C19.0257 36.5225 18.7433 36.3253 18.4073 36.3253C17.9185 36.3253 17.5347 36.7383 17.5347 37.2633C17.5347 38.0368 18.5928 38.8057 19.987 39.0763V39.6118C19.987 40.1998 20.4665 40.6782 21.0568 40.6782C21.646 40.6782 22.1243 40.1998 22.1243 39.6118L22.1208 39.0448C23.5943 38.6843 24.4647 37.653 24.4647 36.2472Z" fill="white"/>
</svg>
