<svg width="42" height="42" viewBox="0 0 42 42" fill="none" xmlns="http://www.w3.org/2000/svg">
<path d="M42 21C42 32.5978 32.5978 42 21 42C9.40217 42 0 32.5978 0 21C0 9.40217 9.40217 0 21 0C32.5978 0 42 9.40217 42 21Z" fill="#FFCC4D"/>
<path fill-rule="evenodd" clip-rule="evenodd" d="M1.44692 12.8543C1.72692 13.1332 3.12458 13.9708 3.40342 14.8085C3.68342 15.645 4.24342 20.3898 5.92108 21.7863C7.65125 23.2237 14.1776 22.6893 15.4271 22.0663C18.2236 20.6722 18.5666 16.7802 19.0613 14.8085C19.3401 13.692 21.0177 13.692 21.0177 13.692C21.0177 13.692 22.6954 13.692 22.9754 14.8073C23.4701 16.7802 23.8154 20.6722 26.6096 22.0652C27.8603 22.6893 34.3866 23.2248 36.1191 21.7875C37.7944 20.391 38.3532 15.6462 38.6332 14.8085C38.9109 13.972 40.3109 13.1343 40.5898 12.8555C40.8709 12.5767 40.8709 11.4602 40.5898 11.1802C40.0309 10.6225 33.4334 10.1255 26.3296 10.9013C24.9121 11.0565 24.3731 11.459 21.0166 11.459C17.6624 11.459 17.1211 11.0553 15.7048 10.9013C8.60558 10.1243 2.00692 10.6213 1.44692 11.179C1.16808 11.4578 1.16808 12.5755 1.44692 12.8543Z" fill="#292F33"/>
<path d="M31.8908 27.5671C31.6831 27.3793 31.3728 27.3676 31.1499 27.5333C31.1044 27.5671 26.5743 30.9166 20.9999 30.9166C15.4396 30.9166 10.8943 27.5671 10.8499 27.5333C10.6271 27.3676 10.3168 27.3816 10.1091 27.5671C9.90259 27.7538 9.85593 28.0618 9.99943 28.2998C10.1499 28.5506 13.7526 34.4166 20.9999 34.4166C28.2473 34.4166 31.8511 28.5506 32.0004 28.2998C32.1439 28.0606 32.0984 27.7538 31.8908 27.5671Z" fill="#664500"/>
</svg>
