<svg width="29" height="28" viewBox="0 0 29 28" fill="none" xmlns="http://www.w3.org/2000/svg">
<g clip-path="url(#clip0_8223_2540)">
<path fill-rule="evenodd" clip-rule="evenodd" d="M14.4708 0.23584C18.1913 0.23584 21.6892 1.65384 24.32 4.22873C26.9508 6.8036 28.3997 10.227 28.3997 13.8684C28.3997 17.5097 26.9508 20.9332 24.32 23.508C21.6892 26.0829 18.1913 27.5009 14.4708 27.5009C10.7502 27.5009 7.25236 26.0829 4.62151 23.508C1.99075 20.9332 0.54187 17.5097 0.54187 13.8684C0.54187 10.227 1.99075 6.8036 4.62151 4.22873C7.25236 1.65384 10.7502 0.23584 14.4708 0.23584ZM24.8488 13.3359H27.2991C27.2422 12.0053 26.9736 10.7276 26.5243 9.53438L24.2594 10.4526C24.5915 11.3615 24.7956 12.3294 24.8488 13.3359ZM26.1041 8.55193L23.8401 9.4698C23.4082 8.59209 22.851 7.78426 22.1918 7.06811L23.9241 5.37264C24.8064 6.31223 25.5443 7.38332 26.1041 8.55193ZM23.1547 4.61939C22.1998 3.75985 21.1119 3.03999 19.925 2.49272L18.987 4.70896C19.8767 5.13088 20.6959 5.67352 21.4226 6.31479L23.1547 4.61939ZM15.0149 1.31297C16.3829 1.3691 17.6961 1.63515 18.9218 2.07985L17.9839 4.29594C17.0486 3.96615 16.0517 3.76374 15.0149 3.71113V1.31297ZM13.9267 3.71113V1.31292C12.6066 1.36707 11.3376 1.61698 10.149 2.03406L11.0873 4.25115C11.9849 3.94783 12.9376 3.76129 13.9267 3.71113ZM9.14108 2.43574L10.0788 4.65161C9.14224 5.08088 8.28124 5.64258 7.52153 6.31259L5.78925 4.61715C6.77703 3.72854 7.90671 2.98913 9.14108 2.43574ZM6.75195 7.06561L5.01974 5.37019C4.14875 6.29734 3.41808 7.35252 2.8607 8.5032L5.12578 9.42148C5.55475 8.56153 6.10391 7.76924 6.75195 7.06561ZM2.4368 9.48421L4.70041 10.4019C4.35725 11.3253 4.147 12.3107 4.0927 13.3359H1.64242C1.7002 11.9866 1.976 10.6917 2.4368 9.48421ZM4.0927 14.4009H1.64242C1.69873 15.716 1.9618 16.9796 2.40181 18.1609L4.66711 17.2425C4.34392 16.3457 4.14521 15.392 4.0927 14.4009ZM2.81832 19.1448L5.08236 18.2269C5.51764 19.1215 6.08236 19.9443 6.75293 20.6722L5.02072 22.3675C4.12693 21.4164 3.38108 20.3305 2.81832 19.1448ZM5.79034 23.1206C6.76729 23.9993 7.88321 24.7318 9.10182 25.2829L10.0396 23.0671C9.11862 22.6405 8.2715 22.0853 7.52262 21.4251L5.79034 23.1206ZM13.9377 26.4242C12.5986 26.3704 11.3117 26.1154 10.108 25.6885L11.0463 23.4715C11.9592 23.7842 12.9295 23.9762 13.9377 24.0263V26.4242ZM7.83817 7.48924C6.18699 9.13344 5.1667 11.3864 5.1667 13.8684C5.1667 18.8895 9.34049 22.9745 14.4708 22.9745C19.6011 22.9745 23.7749 18.8895 23.7749 13.8684C23.7749 8.84724 19.6011 4.76227 14.4708 4.76227C11.9354 4.76227 9.63413 5.76032 7.95431 7.37564C7.93824 7.39702 7.92089 7.41781 7.90111 7.43718C7.88133 7.45648 7.86002 7.47352 7.83817 7.48924ZM15.0258 26.4234V24.0249C16.0738 23.9707 17.0811 23.7639 18.0249 23.4267L18.9624 25.6418C17.7284 26.0942 16.405 26.3657 15.0258 26.4234ZM19.0258 23.0089L19.9642 25.2261C21.1355 24.6812 22.2095 23.968 23.1536 23.1183L21.4214 21.4229C20.7056 22.0544 19.9 22.5899 19.0258 23.0089ZM23.9231 22.3652L22.1909 20.6697C22.875 19.9267 23.4487 19.0845 23.8872 18.1685L26.1512 19.0864C25.5858 20.2938 24.8306 21.3989 23.9231 22.3652ZM24.8489 14.401C24.7976 15.3696 24.6068 16.3026 24.2964 17.1817L26.5617 18.1C26.9882 16.9361 27.2438 15.6935 27.2991 14.401H24.8489Z" fill="white"/>
<path d="M18.9734 9.47293C18.7687 9.26543 18.431 9.25507 18.2131 9.45178C17.9923 9.6513 17.9785 9.98819 18.1824 10.2043C18.1873 10.2094 18.1933 10.2156 18.1985 10.2206C18.3047 10.3245 18.4439 10.3766 18.5831 10.3766C18.7224 10.3766 18.8616 10.3245 18.9678 10.2206C19.1785 10.0145 19.1803 9.68132 18.9734 9.47293Z" fill="white"/>
<path d="M10.7552 17.5321C10.7504 17.5269 10.7444 17.5208 10.7393 17.5158C10.5268 17.3079 10.1824 17.3079 9.96982 17.5158C9.75915 17.7219 9.75733 18.055 9.96422 18.2634C10.0706 18.3712 10.2129 18.4258 10.3556 18.4258C10.4875 18.4258 10.6199 18.3791 10.7245 18.2846C10.9453 18.0851 10.959 17.7482 10.7552 17.5321Z" fill="white"/>
<path fill-rule="evenodd" clip-rule="evenodd" d="M22.1651 12.3359C22.8846 12.4188 23.4649 12.9902 23.5449 13.6947C23.5947 14.1333 23.4518 14.5722 23.1528 14.899C22.8538 15.2261 22.4252 15.4137 21.977 15.4137C21.7892 15.4137 21.6052 15.3814 21.43 15.3176C21.1929 15.2315 20.9458 15.1779 20.693 15.1572C20.1759 17.5636 18.243 19.4554 15.7843 19.9615C15.8055 20.209 15.8602 20.4508 15.9482 20.6828C16.0133 20.8541 16.0463 21.0342 16.0463 21.2181C16.0463 21.6568 15.8546 22.0763 15.5205 22.369C15.2302 22.6233 14.8534 22.7622 14.4655 22.7622C14.4072 22.7622 14.3486 22.7591 14.29 22.7527C13.5703 22.6745 12.9863 22.1066 12.9015 21.4024C12.8728 21.1637 12.8992 20.9292 12.9801 20.7055C13.0755 20.4413 13.1323 20.1964 13.1531 19.9624C12.515 19.8314 11.9048 19.6057 11.3335 19.2886C11.0722 19.1435 10.9804 18.8185 11.1287 18.5626C11.2769 18.3069 11.6091 18.2172 11.8704 18.3622C12.2789 18.589 12.7118 18.758 13.1624 18.8702V15.9589C12.8263 15.7563 12.5404 15.4766 12.3334 15.1474H9.35864C9.46376 15.5517 9.6177 15.9419 9.82137 16.3122C9.96386 16.5711 9.86483 16.8941 9.60023 17.0335C9.51824 17.0767 9.42998 17.0972 9.34287 17.0972C9.14912 17.0972 8.96158 16.9957 8.86334 16.817C8.57506 16.2929 8.3675 15.7364 8.2432 15.1574C7.99059 15.178 7.74371 15.2316 7.5068 15.3177C7.33156 15.3814 7.14755 15.4137 6.95989 15.4137C6.51163 15.4137 6.08304 15.2261 5.78396 14.899C5.48503 14.5723 5.34215 14.1333 5.39193 13.6948C5.47186 12.9902 6.05214 12.4188 6.77174 12.3359C7.01528 12.3079 7.25486 12.3336 7.48355 12.4127C7.75381 12.5063 8.00423 12.5619 8.24363 12.5822C8.76053 10.1754 10.6936 8.28337 13.1525 7.77722C13.1313 7.52969 13.0767 7.28788 12.9887 7.05583C12.9235 6.88462 12.8905 6.70446 12.8905 6.52056C12.8905 6.08185 13.0821 5.66234 13.4163 5.36972C13.7503 5.07715 14.1986 4.93747 14.6469 4.98604C15.3665 5.06426 15.9504 5.6322 16.0352 6.33641C16.064 6.57495 16.0375 6.80925 15.9567 7.03308C15.8612 7.29741 15.8044 7.54232 15.7837 7.77633C16.4217 7.90733 17.032 8.133 17.6032 8.45011C17.8646 8.59524 17.9563 8.92028 17.8081 9.17609C17.7079 9.34891 17.5238 9.44596 17.3343 9.44596C17.2434 9.44596 17.1512 9.42356 17.0664 9.3765C16.6579 9.1497 16.2249 8.98068 15.7743 8.86856V11.7799C16.1105 11.9824 16.3964 12.2622 16.6033 12.5913H19.5781C19.473 12.187 19.319 11.7968 19.1154 11.4266C18.9729 11.1677 19.0719 10.8446 19.3365 10.7052C19.601 10.566 19.9311 10.6628 20.0735 10.9217C20.3618 11.446 20.5695 12.0028 20.6938 12.5821C20.9329 12.5618 21.1832 12.5062 21.4532 12.4127C21.6819 12.3337 21.9214 12.3079 22.1651 12.3359ZM13.1626 11.7798V8.86785C11.2981 9.33217 9.83257 10.7665 9.35827 12.5913H12.3335C12.5405 12.2622 12.8263 11.9823 13.1626 11.7798ZM15.7742 18.8708V15.9588C16.1105 15.7563 16.3964 15.4765 16.6033 15.1474H19.5786C19.1042 16.9722 17.6387 18.4065 15.7742 18.8708ZM21.977 14.3486C22.1182 14.3486 22.2478 14.2919 22.3421 14.1887C22.4361 14.0858 22.4792 13.9522 22.4633 13.8124C22.4391 13.5989 22.2562 13.4189 22.0378 13.3937C21.9608 13.3849 21.8861 13.3927 21.8159 13.417C21.3502 13.5782 20.9169 13.6565 20.491 13.6565H16.2734C16.0547 13.6565 15.8573 13.5284 15.7722 13.3312C15.6299 13.0016 15.3551 12.7327 15.0183 12.5933C14.8169 12.5101 14.686 12.3169 14.686 12.1029V7.97495C14.686 7.55822 14.766 7.13411 14.9306 6.67831C14.9555 6.6095 14.9635 6.5364 14.9544 6.4611C14.9287 6.24741 14.7449 6.06833 14.5267 6.04462C14.384 6.02901 14.2473 6.07119 14.1421 6.16335C14.0367 6.25557 13.9787 6.38246 13.9787 6.52068C13.9787 6.57745 13.9888 6.63267 14.0086 6.68492C14.1693 7.10844 14.2508 7.55417 14.2508 8.00992V12.1027C14.2508 12.3168 14.1199 12.51 13.9184 12.5933C13.5816 12.7326 13.3069 13.0015 13.1646 13.3311C13.0794 13.5282 12.882 13.6564 12.6634 13.6564H8.44571C8.01981 13.6564 7.58648 13.578 7.12083 13.4169C7.05064 13.3926 6.9759 13.3847 6.89896 13.3937C6.68062 13.4187 6.49771 13.5988 6.47344 13.8123C6.4576 13.9522 6.50069 14.0858 6.59479 14.1887C6.68902 14.2919 6.81867 14.3486 6.95989 14.3486C7.01784 14.3486 7.07432 14.3387 7.12807 14.3192C7.56061 14.1619 8.01604 14.0822 8.48163 14.0822H12.6635C12.8821 14.0822 13.0796 14.2104 13.1647 14.4075C13.307 14.7371 13.5818 15.006 13.9186 15.1454C14.12 15.2287 14.2508 15.4219 14.2508 15.6359V19.7637C14.2508 20.1804 14.1709 20.6046 14.0063 21.0605C13.9813 21.1293 13.9733 21.2023 13.9824 21.2777C14.0081 21.4914 14.192 21.6704 14.4102 21.6941C14.5532 21.7098 14.6898 21.6675 14.7948 21.5754C14.9001 21.4832 14.9581 21.3562 14.9581 21.2181C14.9581 21.1613 14.9481 21.1061 14.9282 21.0538C14.7676 20.6303 14.6861 20.1846 14.6861 19.7288V15.636C14.6861 15.4219 14.817 15.2287 15.0183 15.1454C15.3552 15.0062 15.63 14.7372 15.7723 14.4076C15.8574 14.2105 16.0548 14.0823 16.2735 14.0823H20.4553C20.921 14.0823 21.3764 14.1621 21.8089 14.3193C21.8625 14.3387 21.919 14.3486 21.977 14.3486Z" fill="white"/>
</g>
<defs>
<clipPath id="clip0_8223_2540">
<rect width="28" height="28" fill="white" transform="translate(0.5)"/>
</clipPath>
</defs>
</svg>
