<svg width="29" height="28" viewBox="0 0 29 28" fill="none" xmlns="http://www.w3.org/2000/svg">
<g clip-path="url(#clip0_8223_2529)">
<path fill-rule="evenodd" clip-rule="evenodd" d="M11.7421 5.99697L11.9606 6.17695C13.9276 7.84178 15.5539 9.39091 15.5539 11.3193C15.5659 12.1391 15.2726 12.9341 14.7311 13.5498C14.4595 13.8577 14.1251 14.1037 13.7502 14.2711C13.3754 14.4386 12.969 14.5236 12.5584 14.5204C12.2885 14.5211 12.02 14.4821 11.7614 14.4047V14.5461C11.7593 14.9832 11.8452 15.4162 12.0142 15.8193C12.1832 16.2224 12.4317 16.5874 12.7449 16.8923C12.8234 16.9677 12.8777 17.065 12.9006 17.1715C12.9235 17.278 12.914 17.389 12.8734 17.4901C12.831 17.59 12.7604 17.6755 12.6702 17.736C12.58 17.7965 12.4742 17.8294 12.3656 17.8308H7.86607C7.75671 17.8329 7.64934 17.8013 7.55851 17.7404C7.46768 17.6795 7.39778 17.5921 7.35826 17.4901C7.31824 17.3904 7.30849 17.2812 7.33021 17.176C7.35193 17.0708 7.40417 16.9744 7.48039 16.8987C7.79442 16.5941 8.04391 16.2294 8.21398 15.8263C8.38405 15.4232 8.47122 14.99 8.47029 14.5525C8.47029 14.5075 8.47029 14.4561 8.47029 14.4111C8.20953 14.4886 7.93884 14.5276 7.6668 14.5268C7.25628 14.53 6.84985 14.445 6.47502 14.2776C6.10019 14.1101 5.7657 13.8641 5.49417 13.5562C4.95645 12.9341 4.66795 12.135 4.68425 11.3129C4.68425 10.0787 5.32704 8.88953 6.61262 7.6618C7.15257 7.14756 7.78893 6.61405 8.541 5.99697L9.82658 4.91708C9.9262 4.82983 10.0541 4.78174 10.1865 4.78174C10.319 4.78174 10.4469 4.82983 10.5465 4.91708C10.9193 5.30275 11.3371 5.65629 11.7421 5.99697ZM11.6393 13.1384C11.9081 13.3274 12.2299 13.4264 12.5584 13.4212C12.8258 13.4167 13.0895 13.3576 13.3333 13.2477C13.5771 13.1378 13.7959 12.9794 13.9764 12.7821C14.1569 12.5847 14.2952 12.3527 14.383 12.1C14.4708 11.8474 14.5061 11.5796 14.4868 11.3129C14.4868 9.97585 13.3555 8.74169 11.2729 7.01258L11.0543 6.83259L10.1415 6.04839L9.2545 6.80688H9.22236C8.50243 7.41111 7.88535 7.93177 7.36469 8.42672C6.31051 9.4359 5.80271 10.3551 5.80271 11.2871C5.78352 11.5512 5.81786 11.8165 5.90366 12.067C5.98946 12.3175 6.12495 12.5481 6.30202 12.745C6.47909 12.9418 6.69408 13.1009 6.93412 13.2127C7.17416 13.3245 7.4343 13.3867 7.69894 13.3955C8.02921 13.3986 8.35242 13.2998 8.62456 13.1127C8.69687 13.0624 8.78049 13.0308 8.86798 13.0207C8.95546 13.0106 9.04408 13.0223 9.12594 13.0548C9.20853 13.085 9.28263 13.1346 9.34194 13.1995C9.40125 13.2644 9.44402 13.3427 9.46662 13.4276C9.55656 13.7827 9.6019 14.1476 9.6016 14.514C9.60302 15.2813 9.4012 16.0354 9.01666 16.6994H11.2793C10.7096 15.7112 10.5481 14.5396 10.8293 13.4341C10.8505 13.3488 10.8919 13.2699 10.9501 13.204C11.0083 13.1382 11.0815 13.0873 11.1635 13.0558C11.2455 13.0242 11.3339 13.0129 11.4212 13.0229C11.5085 13.0328 11.5921 13.0636 11.665 13.1127L11.6393 13.1384Z" fill="white"/>
<path d="M16.6782 2.18408H14.4927C14.3478 2.18408 14.2088 2.24165 14.1063 2.34411C14.0039 2.44658 13.9463 2.58555 13.9463 2.73045C13.9463 2.87536 14.0039 3.01433 14.1063 3.1168C14.2088 3.21926 14.3478 3.27683 14.4927 3.27683H16.6782C16.7499 3.27683 16.821 3.2627 16.8872 3.23524C16.9535 3.20778 17.0138 3.16753 17.0645 3.1168C17.1152 3.06606 17.1555 3.00583 17.1829 2.93954C17.2104 2.87325 17.2245 2.80221 17.2245 2.73045C17.2245 2.6587 17.2104 2.58766 17.1829 2.52137C17.1555 2.45508 17.1152 2.39485 17.0645 2.34411C17.0138 2.29338 16.9535 2.25313 16.8872 2.22567C16.821 2.19821 16.7499 2.18408 16.6782 2.18408Z" fill="white"/>
<path d="M5.74719 21.3213H3.23387C3.08897 21.3213 2.94999 21.3789 2.84753 21.4813C2.74506 21.5838 2.6875 21.7228 2.6875 21.8677C2.6875 22.0126 2.74506 22.1515 2.84753 22.254C2.94999 22.3565 3.08897 22.414 3.23387 22.414H5.74719C5.89209 22.414 6.03107 22.3565 6.13353 22.254C6.236 22.1515 6.29356 22.0126 6.29356 21.8677C6.29356 21.7228 6.236 21.5838 6.13353 21.4813C6.03107 21.3789 5.89209 21.3213 5.74719 21.3213Z" fill="white"/>
<path fill-rule="evenodd" clip-rule="evenodd" d="M27.433 4.93021L19.4174 1.65197C19.4182 1.43534 19.3763 1.22067 19.2939 1.02028C19.2116 0.819887 19.0905 0.637724 18.9377 0.48424C18.7848 0.330755 18.6031 0.20897 18.403 0.125872C18.2029 0.0427737 17.9884 -1.65278e-06 17.7718 0L2.13912 0C1.7044 0 1.28748 0.172692 0.980087 0.480087C0.672692 0.787481 0.5 1.2044 0.5 1.63912L0.5 22.9605C0.5 23.3952 0.672692 23.8121 0.980087 24.1195C1.28748 24.4269 1.7044 24.5996 2.13912 24.5996H10.6754L19.2052 27.8972C19.3838 27.9654 19.5733 28.0002 19.7645 28C20.1022 27.9999 20.4317 27.8955 20.7078 27.7011C20.9839 27.5066 21.1933 27.2316 21.3072 26.9137L28.3779 7.03214C28.5269 6.62783 28.5115 6.18118 28.3348 5.78815C28.1581 5.39512 27.8343 5.08708 27.433 4.93021ZM2.13912 23.5069C1.99421 23.5069 1.85524 23.4493 1.75277 23.3469C1.65031 23.2444 1.59275 23.1054 1.59275 22.9605V1.63912C1.59275 1.49421 1.65031 1.35524 1.75277 1.25277C1.85524 1.15031 1.99421 1.09275 2.13912 1.09275H17.7718C17.8436 1.09275 17.9146 1.10688 17.9809 1.13434C18.0472 1.16179 18.1074 1.20204 18.1581 1.25277C18.2089 1.30351 18.2491 1.36374 18.2766 1.43003C18.304 1.49632 18.3182 1.56737 18.3182 1.63912V2.01837V22.9605C18.3182 23.0323 18.304 23.1033 18.2766 23.1696C18.2491 23.2359 18.2089 23.2961 18.1581 23.3469C18.1074 23.3976 18.0472 23.4378 17.9809 23.4653C17.9146 23.4928 17.8436 23.5069 17.7718 23.5069H2.13912ZM20.2851 26.5473L27.3558 6.65932C27.3814 6.59227 27.3934 6.52079 27.3911 6.44906C27.3887 6.37732 27.3721 6.30677 27.3422 6.24154C27.3123 6.1763 27.2696 6.11768 27.2168 6.06912C27.164 6.02055 27.102 5.983 27.0344 5.95868L19.4174 2.83471V22.9605C19.4157 23.3958 19.2415 23.8127 18.9331 24.1199C18.6247 24.4271 18.2071 24.5996 17.7718 24.5996H13.7094L19.5909 26.8751C19.7265 26.921 19.8747 26.9125 20.0042 26.8514C20.1337 26.7902 20.2344 26.6812 20.2851 26.5473Z" fill="white"/>
</g>
<defs>
<clipPath id="clip0_8223_2529">
<rect width="28" height="28" fill="white" transform="translate(0.5)"/>
</clipPath>
</defs>
</svg>
