<svg width="29" height="28" viewBox="0 0 29 28" fill="none" xmlns="http://www.w3.org/2000/svg">
<g clip-path="url(#clip0_8223_2549)">
<path fill-rule="evenodd" clip-rule="evenodd" d="M3.48336 11.8228H25.278C25.5288 11.8228 25.7321 12.026 25.7321 12.2769V20.9039C25.7321 21.1546 25.5288 21.358 25.278 21.358H3.48336C3.2326 21.358 3.0293 21.1546 3.0293 20.9039V12.2769C3.0293 12.0261 3.2326 11.8228 3.48336 11.8228ZM3.93741 20.4498H10.2942V12.7309H3.93741V20.4498ZM17.5591 20.4498H11.2023V12.7309H17.5591V20.4498ZM18.4672 20.4498H24.824V12.7309H18.4672V20.4498Z" fill="white"/>
<path fill-rule="evenodd" clip-rule="evenodd" d="M27.549 6.82591H25.9208L26.5079 6.23882C26.6852 6.06146 26.6851 5.77398 26.5078 5.59667C26.4226 5.51159 26.3072 5.46375 26.1869 5.46375H24.1972L23.1901 3.44456C23.0563 3.22015 22.7659 3.14665 22.5414 3.28048C22.4739 3.32072 22.4176 3.37708 22.3773 3.44456L21.3657 5.46375H19.3761C19.3668 5.46375 19.3581 5.46557 19.3495 5.46737C19.3432 5.46868 19.3369 5.46998 19.3306 5.47056L20.0943 4.92569C20.2987 4.78039 20.3466 4.49689 20.2013 4.29251C20.1158 4.17236 19.9775 4.10118 19.8301 4.10158H16.0583L14.8069 0.763818C14.7193 0.528847 14.4578 0.409374 14.2228 0.497007C14.0993 0.543037 14.002 0.640376 13.956 0.763818L12.7046 4.10158H8.93276C8.68203 4.10153 8.47871 4.30483 8.47865 4.55558C8.47865 4.7023 8.54954 4.83999 8.66899 4.92524L9.43269 5.4701C9.42499 5.4701 9.41748 5.4684 9.40997 5.4667C9.40246 5.465 9.39501 5.46329 9.38725 5.46329H7.39715L6.39005 3.44456C6.25622 3.22015 5.9658 3.14665 5.74138 3.28048C5.67389 3.32072 5.61753 3.37708 5.57729 3.44456L4.56566 5.46375H2.57599C2.32524 5.4638 2.12199 5.66711 2.12205 5.91792C2.12205 6.0383 2.16989 6.15368 2.25497 6.23882L2.84207 6.82591H1.21382C0.963069 6.82591 0.759766 7.02923 0.759766 7.27996V27.2584C0.759766 27.5091 0.963069 27.7124 1.21382 27.7124H27.549C27.7998 27.7124 28.0031 27.5091 28.0031 27.2584V7.27996C28.0031 7.02917 27.7998 6.82591 27.549 6.82591ZM21.6463 6.37187C21.8192 6.37282 21.9776 6.27543 22.055 6.12077L22.7814 4.66279L23.508 6.12077C23.5852 6.27543 23.7437 6.37282 23.9166 6.37187H25.0908L24.0496 7.41302C23.9368 7.52585 23.8914 7.68959 23.9302 7.84435L24.1572 8.75702L22.9644 8.22712C22.847 8.17494 22.7131 8.17494 22.5957 8.22712L21.4029 8.75702L21.63 7.84435C21.6688 7.68959 21.6234 7.52585 21.5105 7.41302L20.4721 6.37187H21.6463ZM19.6421 6.82591L19.055 6.23882C18.9251 6.10896 18.8862 5.9136 18.9565 5.7439L18.9571 5.74266L18.958 5.74144L18.9599 5.73909C18.9617 5.73704 18.9633 5.7351 18.9633 5.733L17.4327 6.82591H19.6421ZM13.0192 5.00969C13.2087 5.00981 13.3783 4.89237 13.4447 4.71501L14.3814 2.21634L15.3182 4.71365C15.3841 4.89153 15.5539 5.00958 15.7436 5.00969H18.413L16.3879 6.45631C16.236 6.56475 16.1659 6.75521 16.2113 6.93626L16.861 9.53619L14.6085 8.24799C14.4689 8.16826 14.2976 8.16826 14.158 8.24799L11.9036 9.53619L12.5534 6.93626C12.5988 6.75521 12.5287 6.56475 12.3768 6.45631L10.3499 5.00969H13.0192ZM9.80636 5.7439C9.87668 5.9136 9.83773 6.10896 9.70785 6.23882L9.12074 6.82591H11.3302L9.79955 5.733C9.80025 5.73439 9.8014 5.73571 9.80254 5.73704C9.80445 5.7392 9.80636 5.74137 9.80636 5.7439ZM4.84626 6.37187C5.01835 6.37193 5.17574 6.27469 5.25264 6.12077L5.9814 4.66279L6.71016 6.12077C6.78707 6.27469 6.94444 6.37193 7.11651 6.37187H8.29073L7.24958 7.41302C7.13675 7.52585 7.09138 7.68959 7.13013 7.84435L7.35719 8.75702L6.16439 8.22712C6.04702 8.17494 5.91307 8.17494 5.7957 8.22712L4.60289 8.75702L4.82992 7.84435C4.86868 7.68959 4.82333 7.52585 4.7105 7.41302L3.67208 6.37187H4.84626ZM1.66788 7.734V26.8044H27.095V7.734H25.0126L24.8733 7.87343L25.2652 9.4399C25.2898 9.53822 25.2808 9.64201 25.2396 9.73467C25.1378 9.96382 24.8695 10.0671 24.6404 9.96522L22.7814 9.13884L20.9226 9.96522C20.8299 10.0064 20.7262 10.0154 20.6278 9.99074C20.3846 9.92978 20.2368 9.68319 20.2978 9.4399L20.6896 7.87343L20.5502 7.734H17.3469L18.0002 10.348C18.0093 10.3841 18.0139 10.4212 18.0139 10.4583C18.0139 10.7091 17.8105 10.9124 17.5598 10.9124C17.4802 10.9129 17.4018 10.8923 17.3328 10.8525L14.3814 9.16519L11.43 10.8525C11.3277 10.9117 11.2061 10.9286 11.0914 10.8996C10.8483 10.8381 10.7011 10.5911 10.7626 10.348L11.416 7.734H8.21265L8.07322 7.87343L8.4651 9.4399C8.48972 9.53822 8.48075 9.64201 8.43958 9.73467C8.33776 9.96382 8.06947 10.0671 7.84031 9.96522L5.9814 9.13884L4.1225 9.96522C4.02987 10.0064 3.92612 10.0154 3.82776 9.99074C3.5845 9.92978 3.43676 9.68319 3.49772 9.4399L3.88957 7.87343L3.75018 7.734H1.66788Z" fill="white"/>
<path d="M9.2181 13.7373C9.13754 13.6728 9.03737 13.6376 8.93415 13.6377H5.30171C5.05096 13.6377 4.84766 13.8409 4.84766 14.0917V14.9998C4.84766 15.2506 5.05096 15.4539 5.30171 15.4539C5.55247 15.4539 5.75577 15.2506 5.75577 14.9998V14.5458H8.03192C7.14171 15.893 6.6661 17.4716 6.66388 19.0864C6.66388 19.3371 6.86718 19.5404 7.11791 19.5404C7.3687 19.5404 7.57202 19.3371 7.57202 19.0864C7.57405 17.4262 8.13889 15.8158 9.17438 14.5181L9.2888 14.3755C9.44547 14.1797 9.41385 13.894 9.2181 13.7373Z" fill="white"/>
<path d="M16.4779 13.7373C16.3973 13.6728 16.2972 13.6376 16.194 13.6377H12.5615C12.3107 13.6377 12.1074 13.8409 12.1074 14.0917V14.9998C12.1074 15.2506 12.3107 15.4539 12.5615 15.4539C12.8123 15.4539 13.0155 15.2506 13.0155 14.9998V14.5458H15.2917C14.4015 15.893 13.9259 17.4716 13.9237 19.0864C13.9237 19.3371 14.127 19.5404 14.3777 19.5404C14.6284 19.5404 14.8318 19.3371 14.8318 19.0864C14.8338 17.4262 15.3986 15.8158 16.4341 14.5181L16.5485 14.3755C16.7053 14.1797 16.6736 13.894 16.4779 13.7373Z" fill="white"/>
<path d="M23.7444 13.7373C23.6639 13.6728 23.5637 13.6376 23.4605 13.6377H19.8281C19.5773 13.6377 19.374 13.8409 19.374 14.0917V14.9998C19.374 15.2506 19.5773 15.4539 19.8281 15.4539C20.0788 15.4539 20.2821 15.2506 20.2821 14.9998V14.5458H22.5583C21.6681 15.893 21.1924 17.4716 21.1902 19.0864C21.1902 19.3371 21.3935 19.5404 21.6443 19.5404C21.895 19.5404 22.0984 19.3371 22.0984 19.0864C22.1004 17.4262 22.6652 15.8158 23.7007 14.5181L23.8151 14.3755C23.9718 14.1797 23.9402 13.894 23.7444 13.7373Z" fill="white"/>
<path fill-rule="evenodd" clip-rule="evenodd" d="M3.48047 24.0809C3.48047 23.0778 4.29362 22.2646 5.29669 22.2646C6.29976 22.2646 7.11288 23.0778 7.11288 24.0809C7.11288 25.0839 6.29976 25.8971 5.29669 25.8971C4.29362 25.8971 3.48047 25.0839 3.48047 24.0809ZM4.38858 24.0809C4.38858 24.5825 4.79513 24.989 5.29669 24.989C5.79819 24.989 6.2048 24.5825 6.2048 24.0809C6.2048 23.5793 5.79825 23.1728 5.29669 23.1728C4.79513 23.1728 4.38858 23.5793 4.38858 24.0809Z" fill="white"/>
<path fill-rule="evenodd" clip-rule="evenodd" d="M8.02637 24.0809C8.02637 23.0778 8.83951 22.2646 9.84255 22.2646C10.8456 22.2646 11.6588 23.0778 11.6588 24.0809C11.6588 25.0839 10.8456 25.8971 9.84255 25.8971C8.83951 25.8971 8.02637 25.0839 8.02637 24.0809ZM8.93446 24.0809C8.93446 24.5825 9.34103 24.989 9.84255 24.989C10.3441 24.989 10.7507 24.5825 10.7507 24.0809C10.7507 23.5793 10.3441 23.1728 9.84255 23.1728C9.34103 23.1728 8.93446 23.5793 8.93446 24.0809Z" fill="white"/>
<path fill-rule="evenodd" clip-rule="evenodd" d="M12.5654 24.0809C12.5654 23.0778 13.3786 22.2646 14.3817 22.2646C15.3847 22.2646 16.1979 23.0778 16.1979 24.0809C16.1979 25.0839 15.3847 25.8971 14.3817 25.8971C13.3786 25.8971 12.5654 25.0839 12.5654 24.0809ZM13.4736 24.0809C13.4736 24.5825 13.8801 24.989 14.3817 24.989C14.8832 24.989 15.2898 24.5825 15.2898 24.0809C15.2898 23.5793 14.8833 23.1728 14.3817 23.1728C13.8801 23.1728 13.4736 23.5793 13.4736 24.0809Z" fill="white"/>
<path fill-rule="evenodd" clip-rule="evenodd" d="M17.1045 24.081C17.1045 23.0779 17.9176 22.2647 18.9207 22.2647C19.9238 22.2647 20.7369 23.0779 20.7369 24.081C20.7369 25.084 19.9238 25.8972 18.9207 25.8972C17.9176 25.8972 17.1045 25.084 17.1045 24.081ZM18.0126 24.081C18.0126 24.5825 18.4192 24.989 18.9207 24.989C19.4222 24.989 19.8288 24.5825 19.8288 24.081C19.8288 23.5794 19.4223 23.1729 18.9207 23.1729C18.4192 23.1729 18.0126 23.5794 18.0126 24.081Z" fill="white"/>
<path fill-rule="evenodd" clip-rule="evenodd" d="M21.6436 24.0809C21.6436 23.0778 22.4568 22.2646 23.4598 22.2646C24.4628 22.2646 25.276 23.0778 25.276 24.0809C25.276 25.0839 24.4628 25.8971 23.4598 25.8971C22.4568 25.8971 21.6436 25.0839 21.6436 24.0809ZM22.5517 24.0809C22.5517 24.5825 22.9582 24.989 23.4598 24.989C23.9613 24.989 24.3679 24.5825 24.3679 24.0809C24.3679 23.5793 23.9614 23.1728 23.4598 23.1728C22.9582 23.1728 22.5517 23.5793 22.5517 24.0809Z" fill="white"/>
</g>
<defs>
<clipPath id="clip0_8223_2549">
<rect width="28" height="28" fill="white" transform="translate(0.5)"/>
</clipPath>
</defs>
</svg>
